Coordinates
version=1
nRows=11
nColumns=40
inDegrees=yes

Units are S.I. units (second, meters, Newtons, ...)
If the header above contains a line with 'inDegrees', this indicates whether rotational values are in degrees (yes) or radians (no).

endheader
time	pelvis_tilt	pelvis_list	pelvis_rotation	pelvis_tx	pelvis_ty	pelvis_tz	hip_flexion_r	hip_adduction_r	hip_rotation_r	knee_angle_r	knee_angle_r_beta	ankle_angle_r	subtalar_angle_r	mtp_angle_r	hip_flexion_l	hip_adduction_l	hip_rotation_l	knee_angle_l	knee_angle_l_beta	ankle_angle_l	subtalar_angle_l	mtp_angle_l	lumbar_extension	lumbar_bending	lumbar_rotation	arm_flex_r	arm_add_r	arm_rot_r	elbow_flex_r	pro_sup_r	wrist_flex_r	wrist_dev_r	arm_flex_l	arm_add_l	arm_rot_l	elbow_flex_l	pro_sup_l	wrist_flex_l	wrist_dev_l
      0.62000000	     22.49764200	     -2.59360846	     -3.51986516	      0.56243226	      0.91442846	     -0.19519238	    -29.86452479	      2.27591179	     -2.90654878	     17.60282926	      0.30722733	     24.43910240	      0.00000000	      0.00000000	     -3.45214110	     -4.46464060	     -4.10230894	      5.07943876	      0.08865293	      2.12640885	      0.00000000	      0.00000000	    -37.65111487	     -5.00427287	     13.77901168	     10.19146710	     -7.21089387	     -3.88441664	     43.77794185	     88.93727540	    -13.34236522	      0.24664208	     -2.19044344	     -2.35486647	      1.70744757	     13.29572359	     89.06659832	    -18.81584301	     -2.51354964
      0.63000000	     22.33742609	     -2.50949155	     -3.54987666	      0.57166334	      0.91306115	     -0.19692737	    -29.86992931	      1.94903000	     -3.08157636	     18.62971263	      0.32514982	     24.52488424	      0.00000000	      0.00000000	     -3.35552270	     -4.21486669	     -4.51389179	      5.48029510	      0.09564919	      2.15045628	      0.00000000	      0.00000000	    -37.51638943	     -5.03771830	     13.93622817	     10.02156320	     -7.21368176	     -3.73845285	     43.83709928	     88.93247787	    -13.31108305	      0.16589779	     -2.08782621	     -2.26461709	      1.60319164	     13.53566199	     89.06232926	    -18.74067535	     -2.56931639
      0.64000000	     22.26524972	     -2.27529975	     -3.85822339	      0.58102147	      0.91197987	     -0.19834057	    -29.87281906	      1.31384010	     -3.14851500	     19.85856971	      0.34659743	     24.59933367	      0.00000000	      0.00000000	     -3.38206735	     -3.80068255	     -5.30375856	      6.15636949	      0.10744892	      2.15425280	      0.00000000	      0.00000000	    -37.48006103	     -5.36055361	     14.08081031	      9.85167547	     -7.12608408	     -3.61668757	     43.91195132	     88.92498296	    -13.28030313	      0.02777791	     -2.03065915	     -2.18267368	      1.40392361	     13.78036623	     89.05981171	    -18.61198219	     -2.64132669
      0.65000000	     22.22741465	     -1.98633517	     -4.17996782	      0.59056553	      0.91114387	     -0.19992245	    -29.87449803	      0.59791632	     -3.11920231	     21.16683943	      0.36943104	     24.50952165	      0.00000000	      0.00000000	     -3.48594160	     -3.32252325	     -6.06218145	      6.92118709	      0.12079750	      2.04270883	      0.00000000	      0.00000000	    -37.42193460	     -5.71995702	     14.26018670	      9.62866189	     -7.04533920	     -3.49209407	     43.80790134	     88.91854538	    -13.24323443	     -0.07261611	     -1.95518993	     -2.09038890	      1.21727255	     14.03412819	     89.06095848	    -18.47668451	     -2.72236556
      0.66000000	     22.30026762	     -1.41071890	     -4.98058546	      0.60051356	      0.91068381	     -0.20092576	    -29.87800640	     -0.63515277	     -2.68926373	     22.67019683	      0.39566958	     24.48689746	      0.00000000	      0.00000000	     -3.88568325	     -2.49311422	     -7.63896277	      7.54939833	      0.13176186	      1.72866917	      0.00000000	      0.00000000	    -37.38790931	     -6.61173886	     14.55193232	      9.39433512	     -6.95719775	     -3.19392729	     43.58345559	     88.91281141	    -13.15448458	     -0.29365603	     -1.98963804	     -2.01123931	      0.71503479	     14.41666744	     89.06892262	    -18.19196627	     -2.85186343
      0.67000000	     22.42649034	     -1.08008552	     -5.25923580	      0.61029469	      0.91052750	     -0.20298653	    -29.87834840	     -1.45428887	     -2.73668653	     24.32568504	      0.42456330	     23.84365794	      0.00000000	      0.00000000	     -4.19664166	     -1.94854417	     -8.12164559	      8.45650285	      0.14759382	      1.53217629	      0.00000000	      0.00000000	    -37.48629455	     -6.92463142	     14.51923204	      9.15844005	     -6.81904733	     -3.06966821	     43.32377606	     88.90722336	    -13.10945826	     -0.34601280	     -1.92191701	     -1.90206697	      0.62730073	     14.59179447	     89.07986713	    -18.05966842	     -2.89769012
      0.68000000	     22.65049684	     -0.62955912	     -5.61654590	      0.62023392	      0.91074739	     -0.20490439	    -29.87735275	     -2.44859672	     -2.79669272	     26.16633788	      0.45668875	     22.94768456	      0.00000000	      0.00000000	     -4.66235308	     -1.27133488	     -8.62007575	      9.32435458	      0.16274069	      1.31899052	      0.00000000	      0.00000000	    -37.62554439	     -7.41467147	     14.48425295	      8.89934753	     -6.64662517	     -2.91631379	     42.92282667	     88.90331278	    -13.03608416	     -0.33377348	     -1.84862285	     -1.82029688	      0.58696466	     14.78489774	     89.08443569	    -17.95806641	     -2.97817554
      0.69000000	     23.01945152	     -0.05969215	     -6.18437756	      0.63035929	      0.91138515	     -0.20660117	    -29.87517235	     -3.69834103	     -2.72529745	     28.25721480	      0.49318144	     21.86917820	      0.00000000	      0.00000000	     -5.38028184	     -0.41738309	     -9.23475180	     10.02452420	      0.17496095	      0.94001908	      0.00000000	      0.00000000	    -37.82778622	     -8.10478677	     14.44084970	      8.66773447	     -6.43307145	     -2.72976803	     42.34954322	     88.89829882	    -12.89686647	     -0.24874731	     -1.81875456	     -1.75183821	      0.46186427	     14.96540507	     89.08997126	    -17.90613932	     -3.09629084
      0.70000000	     23.43464465	      0.37947693	     -6.36905370	      0.64044894	      0.91230456	     -0.20901802	    -29.87060400	     -4.67113324	     -2.92321744	     30.45620113	      0.53156099	     20.15348058	      0.00000000	      0.00000000	     -6.07974127	      0.28389197	     -9.30727289	     10.83620890	      0.18912752	      0.97230312	      0.00000000	      0.00000000	    -38.15143206	     -8.43918768	     14.18778923	      8.33916502	     -6.21198562	     -2.69499689	     41.89502947	     88.90600721	    -12.82583471	     -0.13578038	     -1.72061989	     -1.69738578	      0.59964266	     15.10370366	     89.09775723	    -17.85481570	     -3.14001071
      0.71000000	     23.98356778	      0.89928699	     -6.65339725	      0.65064231	      0.91357525	     -0.21134026	    -29.86354700	     -5.80922585	     -3.10215585	     32.85329073	      0.57339809	     18.11061764	      0.00000000	      0.00000000	     -6.99687872	      1.11320688	     -9.42286030	     11.48133313	      0.20038707	      0.94419550	      0.00000000	      0.00000000	    -38.53825845	     -8.88800085	     13.90418249	      8.01711602	     -5.95938354	     -2.65532558	     41.30704317	     88.90867082	    -12.70951565	      0.06904064	     -1.64490830	     -1.65114540	      0.75636385	     15.24946422	     89.10297980	    -17.84446619	     -3.19726734
      0.72000000	     24.64286577	      1.41512147	     -6.93466729	      0.66085129	      0.91513355	     -0.21377609	    -29.85377408	     -6.96985386	     -3.24683467	     35.39562655	      0.61777022	     15.75628859	      0.00000000	      0.00000000	     -8.08115726	      1.97318738	     -9.50021790	     12.00465646	      0.20952078	      0.99726172	      0.00000000	      0.00000000	    -39.02356995	     -9.31193872	     13.54358649	      7.67898846	     -5.69650389	     -2.66207135	     40.67834966	     88.91599502	    -12.57155445	      0.33076625	     -1.58158768	     -1.61552819	      0.93059872	     15.39919974	     89.10799673	    -17.85953007	     -3.24511817
